#!OML:ASF E:\acrobat2\Project_11_07_03\Capture day 1\Session 1\Acrobat.ASF
:FULLY-SPECIFIED
:DEGREES
1760
root 11.1529 4.15172 10.6304 -82.5439 2.91446 168.791
lowerback -14.721097208933717 -6.021940939721138 -3.9744712471784163
upperback -7.222989580057197 -8.95825092018615 9.928789017110747
thorax -0.7396291628622241 -6.095839711371249 10.059604771968594
lowerneck -2.135769309196937 -18.226092605347237 13.464068167869103
upperneck -31.299648652295197 -23.238245719458615 0.39838854196625745
head -10.806956288697673 -8.991134053865958 -1.2077543021959205
rclavicle 2.38542e-15 -1.58034e-14
rhumerus 8.815873677694631 -17.600881192773613 45.83611080557706
rradius 57.684440466647544
rwrist -28.06347052061062
rhand -25.088559588374924 -36.374291159770195
rfingers 8.051191498108828
rthumb 4.095794630281115 -69.37897048176058
lclavicle 2.38542e-15 -1.58034e-14
lhumerus -21.862120060389497 28.414546164542088 -53.951551851078214
lradius 23.368391100038775
lwrist 28.911257197591844
lhand -15.98781289784278 -30.20758354544945
lfingers 8.56645166859685
lthumb 10.22557615467012 -2.269158489302799
rfemur 3.0711219461848893 1.1802480947137213 0.19035610554991667
rtibia 28.038810443153643
rfoot 16.477109034329555 -21.886940252742658
rtoes 24.601520211566047
lfemur -9.812052562251466 -13.03536851693239 -1.4677937532250436
ltibia 44.71848054073307
lfoot 41.01817681581413 10.368433672387901
ltoes 4.47688
1761
root 11.1529 4.15172 10.6304 -82.5439 2.91446 168.791
lowerback -14.737485549399175 -6.120471169076769 -3.976937570821211
upperback -7.188671214453047 -8.949742432492721 9.898462112840969
thorax -0.7658650820112776 -6.113861422382557 10.144876704384949
lowerneck -2.1729789547824265 -18.21239957352983 13.376713906836303
upperneck -31.352086476995332 -23.319478208848164 0.30663744486977373
head -10.851870986023195 -8.925954180348654 -1.2683469051549134
rclavicle 2.38542e-15 -1.58034e-14
rhumerus 9.525586104682468 -17.791308571998098 40.950958481587776
rradius 54.81678390545818
rwrist -27.986538030735083
rhand -25.088324526938806 -36.47195063427991
rfingers 8.09049903384566
rthumb 4.176292788070015 -69.37496220432536
lclavicle 2.38542e-15 -1.58034e-14
lhumerus -21.558639766267643 24.04595497754457 -57.22713024401433
lradius 21.89277912660939
lwrist 28.991314870111488
lhand -15.98021379341179 -30.15307642126338
lfingers 8.525978758050355
lthumb 10.153350908064128 -2.2614105344286637
rfemur 2.8119892552054844 1.15241769984163 0.5879980358354109
rtibia 29.261560289421716
rfoot 16.058651549898904 -21.538717185969837
rtoes 24.860429141701974
lfemur -10.054191741375055 -13.219267090070634 -1.2760235940956237
ltibia 49.28368510191984
lfoot 41.12383602787867 9.96017699836861
ltoes 4.47688
1762
root 11.1529 4.15172 10.6304 -82.5439 2.91446 168.791
lowerback -14.670203438863188 -6.127403647062523 -4.036511939363286
upperback -7.196408335193043 -8.912280067389965 9.83772514007302
thorax -0.7833964569852896 -6.207461533166199 10.049784847136944
lowerneck -2.2428795854109365 -18.150408735545557 13.306371761442982
upperneck -31.354638990401185 -23.31393568788959 0.20687819683404104
head -10.888926293997772 -9.0219248687091 -1.2884778211182948
rclavicle 2.38542e-15 -1.58034e-14
rhumerus 10.79364683707443 -16.684440900655616 42.890126398683336
rradius 56.62105659732371
rwrist -27.975496229205202
rhand -25.032127195526947 -36.426423800331165
rfingers 8.009365999014712
rthumb 4.1862117915699235 -69.43699923183492
lclavicle 2.38542e-15 -1.58034e-14
lhumerus -22.03143221428526 25.810998545805255 -55.30108094753312
lradius 23.7625107798724
lwrist 29.08657806906276
lhand -15.89074940776968 -30.218187106238542
lfingers 8.554908133166844
lthumb 10.152813210459016 -2.1685373270564825
rfemur 2.4632589327499463 1.2838266129250075 0.5735714612119228
rtibia 31.283358465954297
rfoot 15.574610217050346 -21.746966230281252
rtoes 24.496519112081092
lfemur -10.37138821916495 -13.025263866240097 -1.4666884884657798
ltibia 45.51919532146823
lfoot 41.606531317905976 9.915910724369295
ltoes 4.47688
1763
root 11.1529 4.15172 10.6304 -82.5439 2.91446 168.791
lowerback -14.767976248341897 -6.134156694603641 -3.9717932317462847
upperback -7.166636653585697 -8.995866266429879 9.931200487583162
thorax -0.8514305159842008 -6.178233604723871 10.0960778790339
lowerneck -2.3202907392330636 -18.19869014876815 13.351958883828845
upperneck -31.32901592113523 -23.35087125771042 0.2627832936611364
head -10.849818235511032 -9.05474758192636 -1.334991311764387
rclavicle 2.38542e-15 -1.58034e-14
rhumerus 7.217374528594237 -18.16178671877751 43.3125093240972
rradius 57.37495798298394
rwrist -28.031290590299
rhand -25.070187136490237 -36.33824986170955
rfingers 8.08656073514
rthumb 4.188943724304159 -69.37641509526698
lclavicle 2.38542e-15 -1.58034e-14
lhumerus -20.67992088258197 27.817563896621653 -51.8791223613792
lradius 24.63040644958215
lwrist 29.011924121706194
lhand -15.894894573031575 -30.15324998923894
lfingers 8.541918189695265
lthumb 10.250458306033583 -2.1622888546032697
rfemur 2.884429465639316 1.341627035855546 0.1786379473667865
rtibia 32.42227462842057
rfoot 15.26740157767152 -21.44804698955854
rtoes 24.734772706556573
lfemur -10.346273545485017 -13.062335183433788 -1.8919130345609765
ltibia 42.41616988921047
lfoot 41.501517210833626 10.304033196222118
ltoes 4.47688
1764
root 11.1529 4.15172 10.6304 -82.5439 2.91446 168.791
lowerback -14.81716752596048 -6.069468160719901 -4.005715618995758
upperback -7.100601443741659 -8.934853795652105 9.851108319027892
thorax -0.9363148428685386 -6.22572390057828 10.096412753054972
lowerneck -2.2785933513552297 -18.260092476558427 13.409490666289958
upperneck -31.349834207323454 -23.35933337657071 0.26522578416890463
head -10.892286907718725 -8.956253859610941 -1.3463967505856622
rclavicle 2.38542e-15 -1.58034e-14
rhumerus 7.165730337057668 -19.55833390971181 47.742482410193475
rradius 60.2024396983114
rwrist -28.066379461378357
rhand -25.06545451841008 -36.42689378103781
rfingers 8.144009771224587
rthumb 4.190333603590132 -69.40162324071616
lclavicle 2.38542e-15 -1.58034e-14
lhumerus -23.508319890117015 28.61567654815849 -49.41595898692332
lradius 24.486726600036718
lwrist 28.92120059641034
lhand -15.982149555415956 -30.16599344768093
lfingers 8.489419673577572
lthumb 10.203836489395732 -2.20291968521481
rfemur 2.918382254179341 1.5692123429817628 0.27903868897310824
rtibia 30.187439287729383
rfoot 15.095760408455062 -21.890021151888835
rtoes 24.47261322502945
lfemur -10.2824488094031 -12.570650677210281 -1.6655902602826744
ltibia 43.259816891815696
lfoot 41.970082126608375 10.375581268588876
ltoes 4.47688
1765
root 11.1529 4.15172 10.6304 -82.5439 2.91446 168.791
lowerback -14.820802056699863 -5.982023089784377 -4.006873747981061
upperback -7.066636526114356 -8.969587710237287 9.762562909392551
thorax -0.9576334238367258 -6.198223259635399 10.03368519842004
lowerneck -2.3281520611101296 -18.283852750043007 13.436198608047214
upperneck -31.321172991196224 -23.4141315265208 0.26402089532439754
head -10.797005667160818 -9.014513817495695 -1.3857295418135174
rclavicle 2.38542e-15 -1.58034e-14
rhumerus 6.641186920646319 -18.282696609705113 47.155886596524866
rradius 58.42161948461844
rwrist -28.159976360460085
rhand -24.99551963932467 -36.36728626314185
rfingers 8.095218069591448
rthumb 4.195771449093071 -69.4356975310196
lclavicle 2.38542e-15 -1.58034e-14
lhumerus -26.007841897686216 30.341755458802385 -51.15494760378671
lradius 24.805233902239042
lwrist 28.94757427014274
lhand -15.901020151162857 -30.224725682758233
lfingers 8.395610305978314
lthumb 10.143012841303989 -2.2545960011378923
rfemur 2.4268260654008 1.8247825803141509 0.5822848206047686
rtibia 32.28804276156251
rfoot 14.616487528605186 -21.464701225725374
rtoes 24.256254245196974
lfemur -9.89020371025987 -12.659059037052979 -1.7999124797218329
ltibia 42.989104357520915
lfoot 42.01521246306832 10.621836409038233
ltoes 4.47688
1766
root 11.1529 4.15172 10.6304 -82.5439 2.91446 168.791
lowerback -14.8285970825202 -5.93783857262828 -4.090903052324814
upperback -6.983598687728483 -8.966110071795867 9.787404129249014
thorax -0.9697210635332605 -6.264401168102272 10.130957463637952
lowerneck -2.2333777032066093 -18.375567948906216 13.373430906730238
upperneck -31.275315462196602 -23.430611517247524 0.2637966146846945
head -10.856567947996774 -8.952481927194379 -1.3753212986706902
rclavicle 2.38542e-15 -1.58034e-14
rhumerus 7.523556545605083 -21.427784250534643 42.46228291070544
rradius 59.629340710029616
rwrist -28.161916650523537
rhand -24.983305273445286 -36.44861346798466
rfingers 8.111676224283165
rthumb 4.189455290654297 -69.4942843662608
lclavicle 2.38542e-15 -1.58034e-14
lhumerus -24.815495831835246 34.56738360829726 -46.49690585864187
lradius 22.346404572470604
lwrist 28.952136893267774
lhand -15.97636397335121 -30.304033254430095
lfingers 8.358784643437913
lthumb 10.099412888715106 -2.3009382368471694
rfemur 2.854389278917413 1.934439350937485 0.31483629482346664
rtibia 32.4464458743693
rfoot 14.692711241306023 -21.865272051303407
rtoes 24.122712486123234
lfemur -9.567274520302437 -12.263297490226936 -2.2832342465853213
ltibia 45.22500378277155
lfoot 42.45149987714352 10.593855815434658
ltoes 4.47688
1767
root 11.1529 4.15172 10.6304 -82.5439 2.91446 168.791
lowerback -14.792261905090202 -5.878299522193068 -4.049121516179213
upperback -6.909341267243906 -8.884641076425613 9.85157800259872
thorax -0.9269361670996359 -6.192772338033701 10.148719875778033
lowerneck -2.257494049018494 -18.399861384558257 13.345523872331809
upperneck -31.362956952195702 -23.374080869964168 0.18723832866409013
head -10.95303376448952 -9.042200305497396 -1.4589283225677225
rclavicle 2.38542e-15 -1.58034e-14
rhumerus 9.49294638790277 -22.653948521568545 41.66133029800628
rradius 60.29290309306569
rwrist -28.08814492901481
rhand -24.96957802483017 -36.35375377196588
rfingers 8.171577240839493
rthumb 4.1992546454766035 -69.58288291244044
lclavicle 2.38542e-15 -1.58034e-14
lhumerus -27.48775249300619 39.48091602542188 -45.73404590091368
lradius 23.40065501244888
lwrist 29.03485752964627
lhand -15.891920991889569 -30.33685202532859
lfingers 8.27599124322165
lthumb 10.11736509351037 -2.3963877269578906
rfemur 2.381726593048554 2.10696681142673 0.1595639170840344
rtibia 31.16059689842072
rfoot 14.772975025526097 -22.14503385678228
rtoes 24.46291669792631
lfemur -9.882214745992046 -12.128739448039378 -2.4930617730581788
ltibia 47.08955908069632
lfoot 42.017866031060734 10.19476380120236
ltoes 4.47688
